HIERARCHY
ROOT Hips
{
 OFFSET 0.000000 0.000000 0.000000
 CHANNELS 6 Xposition Yposition Zposition Yrotation Xrotation Zrotation
 JOINT Chest
 {
  OFFSET 0.000000 9.588913 -0.003946
  CHANNELS 3 Yrotation Xrotation Zrotation
  JOINT Chest2
  {
   OFFSET 0.000000 9.541882 0.008053
   CHANNELS 3 Yrotation Xrotation Zrotation
   JOINT Chest3
   {
    OFFSET 0.000000 9.501360 0.000000
    CHANNELS 3 Yrotation Xrotation Zrotation
    JOINT Chest4
    {
     OFFSET 0.000000 9.491660 0.000000
     CHANNELS 3 Yrotation Xrotation Zrotation
     JOINT Neck
     {
      OFFSET 0.000000 14.331917 0.000000
      CHANNELS 3 Yrotation Xrotation Zrotation
      JOINT Head
      {
       OFFSET 0.000000 8.884799 0.017034
       CHANNELS 3 Yrotation Xrotation Zrotation
       End Site
       {
        OFFSET 0.000000 16.896195 0.008993
       }
      }
     }
     JOINT RightCollar
     {
      OFFSET -2.923010 9.499495 0.000000
      CHANNELS 3 Yrotation Xrotation Zrotation
      JOINT RightShoulder
      {
       OFFSET -13.795216 0.000000 0.000000
       CHANNELS 3 Yrotation Xrotation Zrotation
       JOINT RightElbow
       {
        OFFSET -30.272209 0.000000 0.000000
        CHANNELS 3 Yrotation Xrotation Zrotation
        JOINT RightWrist
        {
         OFFSET -24.478199 0.000000 0.000000
         CHANNELS 3 Yrotation Xrotation Zrotation
         End Site
         {
          OFFSET -18.090752 0.000000 0.000000
         }
        }
       }
      }
     }
     JOINT LeftCollar
     {
      OFFSET 2.923010 9.499495 0.000000
      CHANNELS 3 Yrotation Xrotation Zrotation
      JOINT LeftShoulder
      {
       OFFSET 13.795216 0.000000 0.000000
       CHANNELS 3 Yrotation Xrotation Zrotation
       JOINT LeftElbow
       {
        OFFSET 30.272209 0.000000 0.000000
        CHANNELS 3 Yrotation Xrotation Zrotation
        JOINT LeftWrist
        {
         OFFSET 24.478199 0.000000 0.000000
         CHANNELS 3 Yrotation Xrotation Zrotation
         End Site
         {
          OFFSET 18.090752 0.000000 0.000000
         }
        }
       }
      }
     }
    }
   }
  }
 }
 JOINT RightHip
 {
  OFFSET -7.826875 0.019532 0.001973
  CHANNELS 3 Yrotation Xrotation Zrotation
  JOINT RightKnee
  {
   OFFSET 0.000000 -40.546152 -0.001885
   CHANNELS 3 Yrotation Xrotation Zrotation
   JOINT RightAnkle
   {
    OFFSET 0.000000 -39.417092 -0.003189
    CHANNELS 3 Yrotation Xrotation Zrotation
    JOINT RightToe
    {
     OFFSET 0.000000 -7.579396 17.243563
     CHANNELS 3 Yrotation Xrotation Zrotation
     End Site
     {
      OFFSET 0.000000 -1.500329 6.694466
     }
    }
   }
  }
 }
 JOINT LeftHip
 {
  OFFSET 7.826875 0.019532 0.001973
  CHANNELS 3 Yrotation Xrotation Zrotation
  JOINT LeftKnee
  {
   OFFSET 0.000000 -40.546152 -0.001885
   CHANNELS 3 Yrotation Xrotation Zrotation
   JOINT LeftAnkle
   {
    OFFSET 0.000000 -39.417092 -0.003189
    CHANNELS 3 Yrotation Xrotation Zrotation
    JOINT LeftToe
    {
     OFFSET 0.000000 -7.579396 17.243563
     CHANNELS 3 Yrotation Xrotation Zrotation
     End Site
     {
      OFFSET 0.000000 -1.500329 6.694466
     }
    }
   }
  }
 }
}
MOTION
Frames: 8
Frame Time: 0.008333
3.741843 88.991191 -0.387637 45.360293 -6.206897 2.302957 -0.084438 -1.648853 -2.317048 -0.073282 -0.928675 -1.265717 -0.088398 -1.161079 -1.582013 -0.073282 -0.928675 -1.265718 4.726945 27.483624 0.705997 5.052408 4.638060 -0.296376 16.379340 0.943476 0.874234 23.626190 -33.963605 75.149066 58.051333 -0.451597 72.592171 29.460683 -5.804274 -9.128923 -11.673679 -0.799264 1.109509 -18.421652 -40.015072 -80.748512 -41.731147 7.543787 -89.320804 24.918079 8.725658 -16.301107 -0.772118 12.724883 -1.177821 -1.715241 1.320225 0.339567 3.472130 -7.569672 -0.588493 -0.083238 -0.157993 -0.031805 6.058801 3.777694 -0.959395 1.545340 2.946016 0.923368 0.917275 -0.822200 -2.045533 0.098758 0.125445 0.035834
3.835658 88.993381 -0.394305 45.327105 -6.189533 2.279139 -0.070314 -1.628088 -2.342178 -0.065914 -0.916477 -1.278653 -0.079197 -1.145808 -1.598203 -0.065914 -0.916477 -1.278653 4.706253 27.469779 0.710516 5.028006 4.618939 -0.286804 16.389514 0.911623 0.868432 23.618004 -33.941418 75.154158 58.037445 -0.457782 72.589715 29.450424 -5.787227 -9.118298 -11.662662 -0.809820 1.119042 -18.419391 -40.021906 -80.761487 -41.735242 7.555344 -89.334359 24.899688 8.712175 -16.294331 -0.774918 12.728911 -1.207544 -1.716016 1.355696 0.320876 3.498439 -7.613973 -0.525027 -0.082294 -0.164599 -0.031260 6.104774 3.904276 -0.963335 1.543434 2.760860 0.897846 0.911352 -0.785393 -1.989663 0.098451 0.126071 0.035008
3.929691 88.995429 -0.402264 45.298609 -6.171239 2.255134 -0.057639 -1.608732 -2.367958 -0.059417 -0.905147 -1.291820 -0.071084 -1.131626 -1.614678 -0.059417 -0.905148 -1.291820 4.684957 27.459051 0.716578 5.002646 4.603769 -0.275379 16.400058 0.877262 0.864291 23.610674 -33.911669 75.160319 58.026635 -0.465605 72.583167 29.441286 -5.765421 -9.111728 -11.647987 -0.817671 1.128544 -18.424412 -40.029458 -80.770664 -41.738652 7.563835 -89.350914 24.882707 8.693664 -16.281741 -0.781993 12.731186 -1.236575 -1.724263 1.392057 0.297761 3.535641 -7.658964 -0.459542 -0.080208 -0.171099 -0.030106 6.136841 4.023062 -0.970653 1.540727 2.586845 0.874103 0.917142 -0.751358 -1.932652 0.097760 0.125563 0.033465
4.023825 88.997264 -0.411239 45.270375 -6.152695 2.229779 -0.046737 -1.590750 -2.394604 -0.053780 -0.894487 -1.305245 -0.064042 -1.118282 -1.631475 -0.053780 -0.894487 -1.305246 4.666077 27.451024 0.725416 4.979402 4.592176 -0.261423 16.416170 0.840158 0.864776 23.600065 -33.877474 75.168575 58.017231 -0.471514 72.574750 29.434387 -5.743169 -9.101629 -11.628117 -0.822733 1.139461 -18.432618 -40.038513 -80.776832 -41.738080 7.571847 -89.367593 24.862503 8.674392 -16.267774 -0.790993 12.733685 -1.265660 -1.729460 1.426213 0.274098 3.577207 -7.702205 -0.393871 -0.077660 -0.177814 -0.028448 6.159250 4.137163 -0.979435 1.539741 2.420174 0.853480 0.929239 -0.719745 -1.876345 0.096451 0.124967 0.031619
4.118042 88.998804 -0.421008 45.238701 -6.134592 2.202310 -0.035979 -1.572994 -2.421359 -0.048120 -0.883943 -1.318310 -0.056973 -1.105084 -1.647820 -0.048120 -0.883943 -1.318310 4.648846 27.444341 0.736035 4.957619 4.582392 -0.245872 16.437824 0.801467 0.865650 23.583302 -33.844478 75.182759 58.010393 -0.474261 72.565770 29.425683 -5.725355 -9.087648 -11.606632 -0.829436 1.151669 -18.436794 -40.047455 -80.784420 -41.734975 7.582346 -89.384222 24.839391 8.654487 -16.254845 -0.795965 12.736350 -1.295083 -1.727061 1.459689 0.254514 3.615750 -7.744344 -0.330722 -0.075032 -0.184635 -0.026183 6.180226 4.247753 -0.987065 1.542370 2.261103 0.834990 0.939630 -0.692178 -1.820153 0.094697 0.125073 0.029177
4.212745 89.000009 -0.431537 45.203563 -6.118533 2.173977 -0.024004 -1.554189 -2.448038 -0.041717 -0.873070 -1.331027 -0.048977 -1.091471 -1.663733 -0.041717 -0.873070 -1.331028 4.631352 27.437816 0.747532 4.935347 4.572790 -0.229293 16.464707 0.761539 0.865199 23.556288 -33.814076 75.202389 58.006241 -0.473806 72.561690 29.415520 -5.707245 -9.076929 -11.584049 -0.837609 1.164838 -18.435236 -40.058929 -80.794779 -41.731724 7.593196 -89.403299 24.819416 8.634088 -16.246875 -0.796028 12.738805 -1.324724 -1.720757 1.497141 0.238643 3.647194 -7.788425 -0.270056 -0.072966 -0.191374 -0.023629 6.201348 4.355220 -0.993869 1.545902 2.112872 0.816332 0.951461 -0.670251 -1.763142 0.093577 0.125678 0.026867
4.307978 89.000811 -0.443079 45.165323 -6.103181 2.145639 -0.010858 -1.535147 -2.474902 -0.034735 -0.862474 -1.344068 -0.040257 -1.078202 -1.680051 -0.034735 -0.862475 -1.344068 4.614706 27.431576 0.760481 4.913697 4.563592 -0.211306 16.496760 0.721376 0.867744 23.521833 -33.783652 75.221288 58.003068 -0.469844 72.563127 29.407100 -5.687804 -9.066925 -11.556230 -0.843757 1.180637 -18.433131 -40.072586 -80.805334 -41.730295 7.602311 -89.423921 24.801078 8.616838 -16.239591 -0.791448 12.738625 -1.353840 -1.714331 1.540572 0.223505 3.672205 -7.835689 -0.209556 -0.071578 -0.197780 -0.021476 6.223733 4.457661 -1.000319 1.546365 1.976810 0.796513 0.966955 -0.655058 -1.705444 0.093236 0.127051 0.025205
4.403545 89.001147 -0.455904 45.124562 -6.085981 2.117256 0.003440 -1.517016 -2.501740 -0.027319 -0.852575 -1.357260 -0.030992 -1.065801 -1.696559 -0.027319 -0.852575 -1.357261 4.598876 27.425624 0.774643 4.892687 4.554804 -0.192166 16.527929 0.682485 0.871775 23.493255 -33.753688 75.236461 57.999685 -0.465903 72.566497 29.399080 -5.670620 -9.055718 -11.524484 -0.849261 1.199278 -18.433307 -40.087237 -80.817471 -41.730008 7.610247 -89.442518 24.780917 8.602153 -16.226326 -0.783992 12.733637 -1.382237 -1.710177 1.588643 0.206772 3.696641 -7.885669 -0.147878 -0.070534 -0.203541 -0.019542 6.249907 4.553985 -1.006300 1.541322 1.849644 0.774384 0.986862 -0.645509 -1.645457 0.092967 0.129619 0.023577
